<?xml version="1.0" encoding="UTF-8" standalone="no"?>
<!DOCTYPE svg PUBLIC "-//W3C//DTD SVG 1.1//EN"
 "http://www.w3.org/Graphics/SVG/1.1/DTD/svg11.dtd">
<!-- Generated by graphviz version 2.47.0 (20210316.0004)
 -->
<!-- Title: dependencies Pages: 1 -->
<svg width="1011pt" height="284pt"
 viewBox="0.00 0.00 1011.00 284.00" xmlns="http://www.w3.org/2000/svg" xmlns:xlink="http://www.w3.org/1999/xlink">
<g id="graph0" class="graph" transform="scale(1 1) rotate(0) translate(4 280)">
<title>dependencies</title>
<polygon fill="white" stroke="transparent" points="-4,4 -4,-280 1007,-280 1007,4 -4,4"/>
<text text-anchor="start" x="480.51" y="-42.4" font-family="Times-12" font-weight="bold" font-size="14.00">Legend</text>
<polygon fill="#ffffb3" stroke="transparent" points="267.5,-10 267.5,-30 287.5,-30 287.5,-10 267.5,-10"/>
<text text-anchor="start" x="291.13" y="-15.4" font-family="Times-12" font-size="14.00"> &#160;Declarations</text>
<polygon fill="#8dd3c7" stroke="transparent" points="380.5,-10 380.5,-30 400.5,-30 400.5,-10 380.5,-10"/>
<text text-anchor="start" x="404.23" y="-15.4" font-family="Times-12" font-size="14.00"> &#160;Module</text>
<polygon fill="#80b1d3" stroke="transparent" points="466.5,-10 466.5,-30 486.5,-30 486.5,-10 466.5,-10"/>
<text text-anchor="start" x="490.28" y="-15.4" font-family="Times-12" font-size="14.00"> &#160;Bootstrap</text>
<polygon fill="#fdb462" stroke="transparent" points="563.5,-10 563.5,-30 583.5,-30 583.5,-10 563.5,-10"/>
<text text-anchor="start" x="587.17" y="-15.4" font-family="Times-12" font-size="14.00"> &#160;Providers</text>
<polygon fill="#fb8072" stroke="transparent" points="659.5,-10 659.5,-30 679.5,-30 679.5,-10 659.5,-10"/>
<text text-anchor="start" x="683.23" y="-15.4" font-family="Times-12" font-size="14.00"> &#160;Exports</text>
<g id="clust1" class="cluster">
<title>cluster_HudModule</title>
<polygon fill="none" stroke="black" stroke-dasharray="1,5" points="8,-70 8,-268 995,-268 995,-70 8,-70"/>
</g>
<g id="clust10" class="cluster">
<title>cluster_HudModule_exports</title>
<polygon fill="none" stroke="black" points="444,-208 444,-260 568,-260 568,-208 444,-208"/>
</g>
<g id="clust2" class="cluster">
<title>cluster_HudModule_declarations</title>
<polygon fill="none" stroke="black" points="16,-78 16,-130 987,-130 987,-78 16,-78"/>
</g>
<!-- HudAbilitiesComponent -->
<g id="node1" class="node">
<title>HudAbilitiesComponent</title>
<polygon fill="#ffffb3" stroke="black" points="978.66,-122 825.34,-122 825.34,-86 978.66,-86 978.66,-122"/>
<text text-anchor="middle" x="902" y="-99.8" font-family="Times,serif" font-size="14.00">HudAbilitiesComponent</text>
</g>
<!-- HudModule -->
<g id="node7" class="node">
<title>HudModule</title>
<polygon fill="#8dd3c7" stroke="black" points="547.66,-187 544.66,-191 523.66,-191 520.66,-187 464.34,-187 464.34,-151 547.66,-151 547.66,-187"/>
<text text-anchor="middle" x="506" y="-164.8" font-family="Times,serif" font-size="14.00">HudModule</text>
</g>
<!-- HudAbilitiesComponent&#45;&gt;HudModule -->
<g id="edge1" class="edge">
<title>HudAbilitiesComponent&#45;&gt;HudModule</title>
<path fill="none" stroke="black" d="M902,-122.28C902,-143.32 902,-175 902,-175 902,-175 558,-175 558,-175"/>
<polygon fill="black" stroke="black" points="558,-171.5 548,-175 558,-178.5 558,-171.5"/>
</g>
<!-- HudComponent -->
<g id="node2" class="node">
<title>HudComponent</title>
<polygon fill="#ffffb3" stroke="black" points="806.94,-122 701.06,-122 701.06,-86 806.94,-86 806.94,-122"/>
<text text-anchor="middle" x="754" y="-99.8" font-family="Times,serif" font-size="14.00">HudComponent</text>
</g>
<!-- HudComponent&#45;&gt;HudModule -->
<g id="edge2" class="edge">
<title>HudComponent&#45;&gt;HudModule</title>
<path fill="none" stroke="black" d="M754,-122.02C754,-139.37 754,-163 754,-163 754,-163 557.79,-163 557.79,-163"/>
<polygon fill="black" stroke="black" points="557.79,-159.5 547.79,-163 557.79,-166.5 557.79,-159.5"/>
</g>
<!-- HudHeroAvatarComponent -->
<g id="node3" class="node">
<title>HudHeroAvatarComponent</title>
<polygon fill="#ffffb3" stroke="black" points="683.51,-122 512.49,-122 512.49,-86 683.51,-86 683.51,-122"/>
<text text-anchor="middle" x="598" y="-99.8" font-family="Times,serif" font-size="14.00">HudHeroAvatarComponent</text>
</g>
<!-- HudHeroAvatarComponent&#45;&gt;HudModule -->
<g id="edge3" class="edge">
<title>HudHeroAvatarComponent&#45;&gt;HudModule</title>
<path fill="none" stroke="black" d="M530.04,-122.11C530.04,-122.11 530.04,-140.99 530.04,-140.99"/>
<polygon fill="black" stroke="black" points="526.54,-140.99 530.04,-150.99 533.54,-140.99 526.54,-140.99"/>
</g>
<!-- HudInventoryComponent -->
<g id="node4" class="node">
<title>HudInventoryComponent</title>
<polygon fill="#ffffb3" stroke="black" points="493.87,-122 334.13,-122 334.13,-86 493.87,-86 493.87,-122"/>
<text text-anchor="middle" x="414" y="-99.8" font-family="Times,serif" font-size="14.00">HudInventoryComponent</text>
</g>
<!-- HudInventoryComponent&#45;&gt;HudModule -->
<g id="edge4" class="edge">
<title>HudInventoryComponent&#45;&gt;HudModule</title>
<path fill="none" stroke="black" d="M479.05,-122.11C479.05,-122.11 479.05,-140.99 479.05,-140.99"/>
<polygon fill="black" stroke="black" points="475.55,-140.99 479.05,-150.99 482.55,-140.99 475.55,-140.99"/>
</g>
<!-- HudPanelsComponent -->
<g id="node5" class="node">
<title>HudPanelsComponent</title>
<polygon fill="#ffffb3" stroke="black" points="315.99,-122 174.01,-122 174.01,-86 315.99,-86 315.99,-122"/>
<text text-anchor="middle" x="245" y="-99.8" font-family="Times,serif" font-size="14.00">HudPanelsComponent</text>
</g>
<!-- HudPanelsComponent&#45;&gt;HudModule -->
<g id="edge5" class="edge">
<title>HudPanelsComponent&#45;&gt;HudModule</title>
<path fill="none" stroke="black" d="M245,-122.02C245,-139.37 245,-163 245,-163 245,-163 454.07,-163 454.07,-163"/>
<polygon fill="black" stroke="black" points="454.07,-166.5 464.07,-163 454.07,-159.5 454.07,-166.5"/>
</g>
<!-- MinimapComponent -->
<g id="node6" class="node">
<title>MinimapComponent</title>
<polygon fill="#ffffb3" stroke="black" points="156.16,-122 23.84,-122 23.84,-86 156.16,-86 156.16,-122"/>
<text text-anchor="middle" x="90" y="-99.8" font-family="Times,serif" font-size="14.00">MinimapComponent</text>
</g>
<!-- MinimapComponent&#45;&gt;HudModule -->
<g id="edge6" class="edge">
<title>MinimapComponent&#45;&gt;HudModule</title>
<path fill="none" stroke="black" d="M90,-122.28C90,-143.32 90,-175 90,-175 90,-175 454.21,-175 454.21,-175"/>
<polygon fill="black" stroke="black" points="454.21,-178.5 464.21,-175 454.21,-171.5 454.21,-178.5"/>
</g>
<!-- HudComponent  -->
<g id="node8" class="node">
<title>HudComponent </title>
<polygon fill="#fb8072" stroke="black" points="560.44,-252 451.56,-252 451.56,-216 560.44,-216 560.44,-252"/>
<text text-anchor="middle" x="506" y="-229.8" font-family="Times,serif" font-size="14.00">HudComponent </text>
</g>
<!-- HudModule&#45;&gt;HudComponent  -->
<g id="edge7" class="edge">
<title>HudModule&#45;&gt;HudComponent </title>
<path fill="none" stroke="black" stroke-dasharray="5,2" d="M506,-187.11C506,-187.11 506,-205.99 506,-205.99"/>
<polygon fill="black" stroke="black" points="502.5,-205.99 506,-215.99 509.5,-205.99 502.5,-205.99"/>
</g>
</g>
</svg>
