<?xml version="1.0" encoding="UTF-8" standalone="no"?>
<!DOCTYPE svg PUBLIC "-//W3C//DTD SVG 1.1//EN"
 "http://www.w3.org/Graphics/SVG/1.1/DTD/svg11.dtd">
<!-- Generated by graphviz version 2.47.0 (20210316.0004)
 -->
<!-- Title: dependencies Pages: 1 -->
<svg width="785pt" height="211pt"
 viewBox="0.00 0.00 785.00 211.00" xmlns="http://www.w3.org/2000/svg" xmlns:xlink="http://www.w3.org/1999/xlink">
<g id="graph0" class="graph" transform="scale(1 1) rotate(0) translate(4 207)">
<title>dependencies</title>
<polygon fill="white" stroke="transparent" points="-4,4 -4,-207 781,-207 781,4 -4,4"/>
<text text-anchor="start" x="367.51" y="-42.4" font-family="Times-12" font-weight="bold" font-size="14.00">Legend</text>
<polygon fill="#ffffb3" stroke="transparent" points="154.5,-10 154.5,-30 174.5,-30 174.5,-10 154.5,-10"/>
<text text-anchor="start" x="178.13" y="-15.4" font-family="Times-12" font-size="14.00"> &#160;Declarations</text>
<polygon fill="#8dd3c7" stroke="transparent" points="267.5,-10 267.5,-30 287.5,-30 287.5,-10 267.5,-10"/>
<text text-anchor="start" x="291.23" y="-15.4" font-family="Times-12" font-size="14.00"> &#160;Module</text>
<polygon fill="#80b1d3" stroke="transparent" points="353.5,-10 353.5,-30 373.5,-30 373.5,-10 353.5,-10"/>
<text text-anchor="start" x="377.28" y="-15.4" font-family="Times-12" font-size="14.00"> &#160;Bootstrap</text>
<polygon fill="#fdb462" stroke="transparent" points="450.5,-10 450.5,-30 470.5,-30 470.5,-10 450.5,-10"/>
<text text-anchor="start" x="474.17" y="-15.4" font-family="Times-12" font-size="14.00"> &#160;Providers</text>
<polygon fill="#fb8072" stroke="transparent" points="546.5,-10 546.5,-30 566.5,-30 566.5,-10 546.5,-10"/>
<text text-anchor="start" x="570.23" y="-15.4" font-family="Times-12" font-size="14.00"> &#160;Exports</text>
<g id="clust1" class="cluster">
<title>cluster_MapModule</title>
<polygon fill="none" stroke="black" stroke-dasharray="1,5" points="8,-70 8,-195 769,-195 769,-70 8,-70"/>
</g>
<g id="clust2" class="cluster">
<title>cluster_MapModule_declarations</title>
<polygon fill="none" stroke="black" points="639,-78 639,-130 761,-130 761,-78 639,-78"/>
</g>
<g id="clust4" class="cluster">
<title>cluster_MapModule_imports</title>
<polygon fill="none" stroke="black" points="16,-78 16,-130 631,-130 631,-78 16,-78"/>
</g>
<!-- MapComponent -->
<g id="node1" class="node">
<title>MapComponent</title>
<polygon fill="#ffffb3" stroke="black" points="753.49,-122 646.51,-122 646.51,-86 753.49,-86 753.49,-122"/>
<text text-anchor="middle" x="700" y="-99.8" font-family="Times,serif" font-size="14.00">MapComponent</text>
</g>
<!-- MapModule -->
<g id="node2" class="node">
<title>MapModule</title>
<polygon fill="#8dd3c7" stroke="black" points="441.71,-187 438.71,-191 417.71,-191 414.71,-187 356.29,-187 356.29,-151 441.71,-151 441.71,-187"/>
<text text-anchor="middle" x="399" y="-164.8" font-family="Times,serif" font-size="14.00">MapModule</text>
</g>
<!-- MapComponent&#45;&gt;MapModule -->
<g id="edge1" class="edge">
<title>MapComponent&#45;&gt;MapModule</title>
<path fill="none" stroke="black" d="M700,-122.28C700,-143.32 700,-175 700,-175 700,-175 451.81,-175 451.81,-175"/>
<polygon fill="black" stroke="black" points="451.81,-171.5 441.81,-175 451.81,-178.5 451.81,-171.5"/>
</g>
<!-- HeroInventoryComponent -->
<g id="node3" class="node">
<title>HeroInventoryComponent</title>
<polygon fill="#8dd3c7" stroke="black" points="622.74,-122 619.74,-126 598.74,-126 595.74,-122 459.26,-122 459.26,-86 622.74,-86 622.74,-122"/>
<text text-anchor="middle" x="541" y="-99.8" font-family="Times,serif" font-size="14.00">HeroInventoryComponent</text>
</g>
<!-- HeroInventoryComponent&#45;&gt;MapModule -->
<g id="edge2" class="edge">
<title>HeroInventoryComponent&#45;&gt;MapModule</title>
<path fill="none" stroke="black" d="M541,-122.02C541,-139.37 541,-163 541,-163 541,-163 451.6,-163 451.6,-163"/>
<polygon fill="black" stroke="black" points="451.6,-159.5 441.6,-163 451.6,-166.5 451.6,-159.5"/>
</g>
<!-- HudModule -->
<g id="node4" class="node">
<title>HudModule</title>
<polygon fill="#8dd3c7" stroke="black" points="440.66,-122 437.66,-126 416.66,-126 413.66,-122 357.34,-122 357.34,-86 440.66,-86 440.66,-122"/>
<text text-anchor="middle" x="399" y="-99.8" font-family="Times,serif" font-size="14.00">HudModule</text>
</g>
<!-- HudModule&#45;&gt;MapModule -->
<g id="edge3" class="edge">
<title>HudModule&#45;&gt;MapModule</title>
<path fill="none" stroke="black" d="M399,-122.11C399,-122.11 399,-140.99 399,-140.99"/>
<polygon fill="black" stroke="black" points="395.5,-140.99 399,-150.99 402.5,-140.99 395.5,-140.99"/>
</g>
<!-- MapRoutingModule -->
<g id="node5" class="node">
<title>MapRoutingModule</title>
<polygon fill="#8dd3c7" stroke="black" points="339.33,-122 336.33,-126 315.33,-126 312.33,-122 208.67,-122 208.67,-86 339.33,-86 339.33,-122"/>
<text text-anchor="middle" x="274" y="-99.8" font-family="Times,serif" font-size="14.00">MapRoutingModule</text>
</g>
<!-- MapRoutingModule&#45;&gt;MapModule -->
<g id="edge4" class="edge">
<title>MapRoutingModule&#45;&gt;MapModule</title>
<path fill="none" stroke="black" d="M274,-122.02C274,-139.37 274,-163 274,-163 274,-163 346.33,-163 346.33,-163"/>
<polygon fill="black" stroke="black" points="346.33,-166.5 356.33,-163 346.33,-159.5 346.33,-166.5"/>
</g>
<!-- ThreeViewportComponent -->
<g id="node6" class="node">
<title>ThreeViewportComponent</title>
<polygon fill="#8dd3c7" stroke="black" points="190.34,-122 187.34,-126 166.34,-126 163.34,-122 23.66,-122 23.66,-86 190.34,-86 190.34,-122"/>
<text text-anchor="middle" x="107" y="-99.8" font-family="Times,serif" font-size="14.00">ThreeViewportComponent</text>
</g>
<!-- ThreeViewportComponent&#45;&gt;MapModule -->
<g id="edge5" class="edge">
<title>ThreeViewportComponent&#45;&gt;MapModule</title>
<path fill="none" stroke="black" d="M107,-122.28C107,-143.32 107,-175 107,-175 107,-175 346.23,-175 346.23,-175"/>
<polygon fill="black" stroke="black" points="346.23,-178.5 356.23,-175 346.23,-171.5 346.23,-178.5"/>
</g>
</g>
</svg>
